<?xml version="1.0" encoding="iso-8859-1"?>
<!-- Generator: Adobe Illustrator 19.0.0, SVG Export Plug-In . SVG Version: 6.00 Build 0)  -->
<svg version="1.1" id="Capa_1" xmlns="http://www.w3.org/2000/svg" xmlns:xlink="http://www.w3.org/1999/xlink" x="0px" y="0px"
	 viewBox="0 0 468.293 468.293" style="enable-background:new 0 0 468.293 468.293;" xml:space="preserve">
<path style="fill:#3A556A;" d="M376.28,288.516c-50.242,50.242-233.971,50.242-284.213,0c-23.18-23.18,0-131.127,0-131.127H376.28
	C376.28,157.389,399.46,265.336,376.28,288.516z"/>
<polygon style="fill:#2D93BA;" points="22.152,415.779 31.895,432.653 51.382,432.653 61.124,415.779 70.867,432.653 
	83.277,432.653 63.419,327.254 19.858,327.254 0,432.653 12.41,432.653 "/>
<path style="fill:#64798A;" d="M229.486,36.496L8.619,120.025c-11.42,4.319-11.42,20.473,0,24.792l220.866,83.529
	c3.021,1.143,6.355,1.143,9.376,0l220.866-83.529c11.42-4.319,11.42-20.473,0-24.792L238.862,36.496
	C235.841,35.354,232.507,35.354,229.486,36.496z"/>
<polygon style="fill:#3A556A;" points="55.077,307.601 28.616,306.028 38.527,153.788 230.96,119.565 237.386,145.281 
	63.836,174.787 "/>
<ellipse style="fill:#44C4A1;" cx="234.146" cy="132.421" rx="46.386" ry="19.169"/>
<circle style="fill:#27A2DB;" cx="41.641" cy="317.752" r="32.624"/>
<g>
</g>
<g>
</g>
<g>
</g>
<g>
</g>
<g>
</g>
<g>
</g>
<g>
</g>
<g>
</g>
<g>
</g>
<g>
</g>
<g>
</g>
<g>
</g>
<g>
</g>
<g>
</g>
<g>
</g>
</svg>
